<svg width="250" height="250" viewBox="0 0 250 250" fill="none" xmlns="http://www.w3.org/2000/svg">
<circle cx="125" cy="125" r="125" fill="white"/>
<mask id="mask0_3_118" style="mask-type:alpha" maskUnits="userSpaceOnUse" x="0" y="0" width="250" height="250">
<circle cx="125" cy="125" r="125" fill="white"/>
</mask>
<g mask="url(#mask0_3_118)">
<path fill-rule="evenodd" clip-rule="evenodd" d="M59.5796 267.159C59.512 267.813 59.3391 269.485 59.1851 270.896C58.6825 275.919 58.9014 280.513 59.8201 283.454C59.8849 283.679 59.4256 283.147 58.8122 282.289C56.6479 279.287 54.1538 277.715 50.5898 277.102C45.1884 276.204 44.5751 275.999 44.5751 275C44.5751 274.203 45.8451 273.161 47.877 272.303C51.7058 270.691 56.91 267.914 58.6825 266.526C59.0527 266.238 59.4255 266.014 59.512 265.994C59.6012 265.994 59.6444 266.526 59.5796 267.159ZM154.581 262.116C155.04 263.299 155.435 264.911 155.783 267.116C156.637 272.571 158.08 277.899 160.028 282.801C160.639 284.332 161.142 285.7 161.142 285.801C161.142 285.944 160.661 285.965 159.788 285.884C158.604 285.78 156.462 285.924 149.836 286.557L148.699 286.658L148.566 285.884C148.239 284.148 146.904 278.328 146.467 276.756C145.813 274.367 145.156 270.671 145.354 270.406C145.986 269.445 148.326 266.69 149.334 265.668C150.012 264.975 151.147 263.647 151.846 262.706C153.203 260.89 153.751 260.237 153.838 260.317C153.86 260.358 154.211 261.155 154.581 262.116ZM94.5928 101.229C94.0226 101.537 93.5633 102.516 93.5633 103.394C93.5633 104.476 93.9578 105.743 95.4223 109.275C97.13 113.462 98.3972 116.954 98.2459 117.156C98.0271 117.484 97.1948 117.34 95.4466 116.73C94.4819 116.381 92.623 115.932 91.2909 115.708C89.956 115.503 88.1186 115.135 87.2216 114.911C85.1653 114.381 84.5763 114.381 83.8548 114.911C82.8253 115.667 82.3227 116.851 82.3443 118.463C82.3443 120.037 83.5711 123.917 84.9032 126.632C86.2164 129.286 89.2778 133.247 92.4933 136.453C93.3012 137.25 94.1551 138.27 94.4171 138.741C94.9873 139.781 96.168 144.907 96.341 147.052C96.4518 148.727 95.7735 153.321 94.2874 160.834C93.7389 163.531 93.6957 164.265 93.6741 169.207C93.6309 175.025 93.5876 175.353 92.3609 177.293C91.661 178.396 90.7883 179.109 87.7025 180.989C82.366 184.276 77.5131 189.809 73.5762 197.14C71.8253 200.407 68.4801 207.676 67.5614 210.188C66.359 213.556 64.5648 219.437 64.1703 221.481C63.9758 222.399 63.5813 225.318 63.276 227.974C62.968 230.649 62.487 234.425 62.1817 236.386C61.5035 240.919 61.1981 244.227 61.1981 247.209C61.1765 249.497 60.9117 252.64 60.7171 252.824C60.6712 252.865 59.8633 252.537 58.9013 252.068C56.0588 250.68 54.3079 250.781 45.6694 252.741C39.5033 254.151 35.6097 255.743 31.8917 258.357C28.9167 260.461 25.1123 264.177 22.9479 267.116C21.9617 268.466 20.562 270.262 19.8406 271.1C18.0491 273.181 16.9331 274.98 16.1225 277.041C15.293 279.145 15.1389 280.798 15.4659 283.535C15.8388 286.434 16.4306 288.457 17.479 290.498C18.222 291.926 18.7489 292.559 20.389 294.07C22.8587 296.359 23.953 296.909 28.7195 298.236C33.1373 299.482 35.0855 299.81 40.2032 300.095C42.3027 300.219 44.6642 300.4 45.4505 300.504C46.2368 300.605 48.0094 300.748 49.3874 300.829C52.6245 300.973 53.8053 301.301 55.3347 302.403C56.8235 303.486 58.3988 304.139 60.0605 304.404C63.865 304.974 86.7406 305.792 89.2994 305.446C91.7502 305.118 94.482 305.403 96.341 306.18C98.6377 307.139 99.7104 307.283 103.166 307.038C106.533 306.813 106.358 306.834 110.492 305.976C114.145 305.242 114.755 305.017 115.982 303.955L116.922 303.138L120.619 303.281C122.74 303.342 125.385 303.322 126.893 303.178C129.344 302.974 129.519 302.994 130.087 303.362C130.438 303.587 131.573 304.159 132.646 304.649L134.57 305.507L138.617 305.446C140.846 305.403 143.689 305.242 144.959 305.078C146.226 304.894 149.026 304.689 151.193 304.608C154.581 304.465 155.281 304.384 156.289 303.975C157.534 303.463 158.08 302.933 158.08 302.199C158.08 301.811 158.191 301.727 158.802 301.727C159.174 301.727 160.244 301.606 161.142 301.442C162.039 301.278 163.636 301.034 164.662 300.912C166.546 300.688 166.546 300.688 168.053 301.321C169.694 302.015 173.806 302.994 176.516 303.342C179.359 303.71 181.547 303.627 184.171 303.037C186.489 302.504 186.576 302.504 187.408 302.853C188.086 303.138 188.589 303.198 189.945 303.097C195.347 302.689 197.03 300.524 195.217 296.235C194.274 293.99 192.766 292.418 190.602 291.457C188.675 290.599 183.536 287.761 182.836 287.15C182.161 286.598 181.701 285.72 180.367 282.576C178.027 277.001 176.932 271.181 175.468 256.5C175.16 253.458 174.725 249.598 174.484 247.923C174.244 246.23 173.957 243.656 173.828 242.206C173.695 240.735 173.433 238.265 173.258 236.693C173.017 234.569 172.931 230.893 172.909 222.5C172.887 211.76 172.909 211.026 173.368 208.208C174.047 204.023 174.219 196.812 173.738 192.486C172.887 184.909 171.466 180.008 168.075 172.739C165.735 167.777 164.687 165.92 162.563 162.958C160.639 160.284 157.929 155.506 157.183 153.525C156.44 151.502 156.07 149.317 155.894 145.725C155.719 141.945 155.894 138.966 156.44 137.25C156.791 136.065 157.796 134.617 160.115 131.879C162.979 128.511 163.79 126.263 163.811 121.833C163.811 120.098 163.7 119.24 163.438 118.566C163.219 118.057 162.979 116.73 162.871 115.604C162.674 113.299 162.674 113.235 161.274 109.928C160.05 106.969 159.02 105.233 157.929 104.231C156.135 102.599 154.975 102.639 147.015 104.6C144.435 105.233 144.04 105.213 141.854 104.476C135.007 102.107 127.769 102.395 121.667 105.233C119.435 106.272 113.991 109.378 112.986 110.173C112.197 110.806 112.045 110.849 110.994 110.745C108.589 110.521 105.768 108.846 103.515 106.315C100.148 102.496 96.2978 100.311 94.5928 101.229Z" fill="#FE5000"/>
</g>
</svg>
