<svg width="250" height="250" viewBox="0 0 250 250" fill="none" xmlns="http://www.w3.org/2000/svg">
<circle cx="125" cy="125" r="125" fill="white"/>
<mask id="mask0_3_122" style="mask-type:alpha" maskUnits="userSpaceOnUse" x="0" y="0" width="250" height="250">
<circle cx="125" cy="125" r="125" fill="white"/>
</mask>
<g mask="url(#mask0_3_122)">
<path fill-rule="evenodd" clip-rule="evenodd" d="M84.5409 71.4762C84.3779 71.511 84.0131 71.7573 83.712 72.0283C83.0088 72.6848 82.644 73.5993 82.644 74.6906C82.644 75.547 83.4108 80.2859 84.038 83.2872C84.2273 84.2611 84.3779 85.0596 84.3531 85.0828C84.3282 85.106 84.038 84.9655 83.6996 84.7655C83.0088 84.3669 78.8998 82.6076 77.2156 81.9975C75.2566 81.2815 74.541 81.4932 74.541 82.7598C74.5534 84.1438 77.9576 91.3579 80.3823 95.1461C80.8852 95.9215 81.8399 97.3171 82.5058 98.2547C83.1718 99.1938 83.7368 99.9909 83.7492 100.049C83.8129 100.179 82.7076 101.375 80.6586 103.381C77.4174 106.56 75.7083 108.964 74.2134 112.471C73.0958 115.099 73.0446 115.368 73.0321 119.193C73.0197 123.181 73.057 123.027 71.4488 126.055C70.3311 128.166 68.7478 130.453 66.7624 132.858C65.9847 133.795 64.9291 135.11 64.4262 135.791C63.8099 136.599 62.8676 137.596 61.6491 138.722C59.8779 140.364 59.777 140.47 59.1623 141.667C58.307 143.332 58.0943 144.141 58.1813 145.384C58.307 147.039 59.0738 148.177 60.8077 149.292C61.6879 149.854 62.3274 150.112 63.56 150.429C65.6696 150.968 67.0014 151.12 70.6447 151.273C72.9824 151.367 73.3969 151.415 74.2258 151.684C75.6338 152.129 76.6506 152.246 77.8815 152.094C79.1886 151.931 79.7412 151.777 81.916 150.909C82.8706 150.522 84.7039 149.877 85.9985 149.455C87.481 148.974 89.2273 148.281 90.6849 147.613C91.9671 147.026 93.4247 146.37 93.9261 146.147C94.4291 145.925 95.5219 145.373 96.3633 144.928C98.7383 143.625 99.9957 143.18 101.754 143.003C102.936 142.886 102.985 142.934 103.777 144.845C104.167 145.76 104.744 147.203 105.07 148.048C105.41 148.88 106.202 150.862 106.843 152.446C108.966 157.701 109.732 160 110.398 163.179C111.416 167.976 111.404 171.272 110.36 174.674C110.121 175.448 109.393 177.56 108.727 179.366C106.905 184.339 106.138 187.506 105.523 192.608C104.946 197.336 104.895 200.057 105.334 203.763C106.088 210.155 107.773 215.083 111.478 221.733C113.338 225.052 115.486 228.231 118.238 231.704C118.892 232.524 119.558 233.44 119.708 233.733C119.871 234.025 120.675 235.292 121.504 236.547C124.646 241.311 125.626 243.655 126.393 248.219C126.795 250.623 126.77 255.069 126.317 261.708C126.015 266.247 125.84 268.206 125.325 272.557C125.224 273.508 125.186 275.76 125.211 280.1C125.236 286.387 125.148 288.71 124.671 293.26C124.57 294.223 124.37 296.369 124.232 298.011C124.094 299.653 123.892 301.495 123.778 302.105C123.578 303.325 123.113 304.709 122.748 305.166C122.321 305.706 121.166 306.315 118.954 307.171C115.21 308.603 114.457 308.931 113.564 309.518C112.509 310.21 112.383 310.374 111.504 312.145C110.75 313.67 110.536 314.526 110.812 315.019C111.076 315.477 112.031 315.958 112.936 316.074C113.853 316.204 115.888 315.993 117.799 315.594C119.005 315.336 119.23 315.336 120.776 315.652C121.265 315.758 122.824 315.887 124.218 315.958C126.844 316.087 128.001 316.027 130.702 315.664C131.393 315.57 132.774 315.406 133.78 315.312C135.865 315.09 136.318 314.984 136.895 314.586C137.611 314.081 138.291 312.462 138.755 310.116C138.881 309.46 139.145 308.721 139.483 308.039C139.786 307.454 140.238 306.432 140.501 305.753C141.192 303.945 141.343 303.641 141.594 303.512C142.009 303.3 142.349 302.444 142.901 300.134C143.479 297.694 143.819 296.685 144.27 296.017C144.672 295.418 144.874 295.301 145.804 295.114C147.048 294.879 147.487 294.433 147.977 292.931C148.668 290.797 148.806 289.037 148.618 284.346C148.417 279.302 148.404 272.522 148.592 270.388C148.769 268.335 148.831 267.948 149.561 264.03C150.214 260.476 150.427 258.998 150.678 256.136C150.917 253.345 150.955 253.204 151.231 253.204C152.01 253.204 155.528 254.471 159.725 256.253C163.581 257.895 165.529 258.565 168.205 259.116C170.982 259.691 176.133 260.207 180.091 260.324L182.617 260.394L182.692 261.497C182.879 264.041 183.974 267.866 185.481 271.138C187.378 275.302 187.906 276.158 192.353 282.387C197.417 289.484 197.618 289.742 201.048 293.178C203.485 295.63 204.478 296.756 206.187 298.973C207.833 301.119 208.573 302.257 208.46 302.503C208.423 302.598 208.159 302.773 207.87 302.879C207.406 303.054 207.016 303.066 204.767 302.996C202.681 302.925 201.903 302.95 200.697 303.114C199.866 303.219 198.761 303.3 198.233 303.3C197.241 303.3 194.841 302.985 192.668 302.574C190.821 302.222 188.409 302.151 186.776 302.398C185.267 302.632 183.131 303.266 182.227 303.758C181.298 304.251 179.626 305.529 178.294 306.75C177.013 307.922 176.51 308.732 176.259 310.034C175.857 312.062 176.322 312.52 178.999 312.802C180.531 312.955 184.061 312.896 186.988 312.684C187.893 312.615 189.59 312.509 190.757 312.438C191.939 312.38 193.71 312.262 194.716 312.191C196.412 312.075 198.371 312.087 202.631 312.274C203.724 312.32 205.282 312.274 207.004 312.157C208.474 312.051 210.194 311.97 210.847 311.97C211.488 311.97 213.486 311.793 215.27 311.57C217.067 311.348 219.341 311.102 220.346 311.031C221.352 310.961 222.871 310.773 223.739 310.62C226.628 310.116 228.073 310.045 230.611 310.315C231.842 310.444 233.815 310.586 234.984 310.62C236.164 310.667 237.91 310.773 238.879 310.878C239.972 310.984 241.052 311.031 241.705 310.984C242.961 310.902 244.658 310.538 245.324 310.222C245.901 309.952 246.693 309.165 247.184 308.38C247.51 307.864 247.547 307.676 247.61 306.444C247.673 305.189 247.699 305.06 248.025 304.661L248.377 304.228L249.532 305.318C250.689 306.397 252.485 307.629 253.967 308.334C254.81 308.744 260.037 309.881 261.909 310.068C263.542 310.245 274.321 310.116 277.512 309.905C280.502 309.693 282.89 309.741 286.496 310.068C288.017 310.197 290.165 310.268 293.909 310.291C308.043 310.374 312.165 310.432 312.956 310.573C313.433 310.655 315.167 310.726 317.278 310.749C319.212 310.761 321.876 310.844 323.183 310.936C325.545 311.102 325.91 311.09 329.892 310.807C332.242 310.632 333.108 310.303 333.485 309.447C333.749 308.85 333.586 308.38 332.832 307.618C331.776 306.561 327.455 303.899 323.912 302.14C319.125 299.759 317.165 299.137 311.837 298.363C310.544 298.175 308.647 297.859 307.604 297.67C306.573 297.483 305.015 297.26 304.148 297.178C302.314 297.014 298.569 297.096 295.165 297.366C292.175 297.612 289.926 297.612 288.518 297.378C287.325 297.166 279.209 295.243 276.607 294.539C273.178 293.624 271.268 292.581 268.065 289.847C265.653 287.806 265.187 287.22 262.938 283.407C262.36 282.433 261.443 280.945 260.89 280.089L259.884 278.528L258.767 272.828C258.165 269.683 257.447 266.293 257.21 265.296C255.55 258.588 251.969 250.025 246.969 240.77C243.439 234.214 239.532 228.384 235.473 223.575C230.749 217.968 228.098 215.27 218.901 206.685C207.455 195.987 203.787 192.772 198.045 188.409C193.823 185.207 192.027 183.764 188.51 180.761C186.926 179.412 184.803 177.629 183.797 176.798C182.127 175.425 181.271 174.779 177.327 171.87C174.714 169.947 171.358 166.521 169.348 163.73C167.74 161.478 165.919 158.311 164.185 154.733C161.22 148.599 159.096 145.115 154.699 139.25C152.738 136.623 151.357 134.946 149.359 132.74C147.274 130.465 145.062 127.708 142.512 124.236C141.431 122.746 139.295 119.99 137.776 118.102C136.254 116.213 133.679 112.835 132.058 110.595C127.059 103.733 126.053 102.572 120.488 97.1634C115.637 92.4607 110.7 88.1088 106.416 84.7655C103.928 82.8192 102.52 81.8221 99.9832 80.1917C98.8392 79.4527 97.0928 78.3034 96.087 77.6223C93.788 76.0745 91.3633 74.5848 88.5117 72.9892C85.7983 71.4646 85.4211 71.324 84.5409 71.4762Z" fill="#FE5000"/>
</g>
</svg>
